<svg width="277" height="228" viewBox="0 0 277 228" fill="none" xmlns="http://www.w3.org/2000/svg">
<g clip-path="url(#clip0_305_5)">
<path d="M22.34 185.29L23.06 184.81C21.76 182.31 21.11 179.57 21.11 176.59C21.11 174.27 21.68 172.3 22.82 170.68C23.98 169.06 25.61 168.25 27.71 168.25C28.81 168.25 29.74 168.44 30.5 168.82C30.3 169.94 29.94 171.89 29.42 174.67C28.3 180.65 27.74 184.08 27.74 184.96C27.74 186.86 28.06 188.28 28.7 189.22C27.82 189.8 27.01 190.2 26.27 190.42C25.53 190.64 24.57 190.75 23.39 190.75C22.23 190.75 21.17 190.5 20.21 190C19.27 189.5 18.49 188.84 17.87 188.02C17.27 187.18 16.76 186.15 16.34 184.93C15.6 182.79 15.15 180.07 14.99 176.77H14.51C13.59 180.93 13.13 183.84 13.13 185.5C13.13 187.16 13.43 188.47 14.03 189.43C12.83 190.33 11.58 190.78 10.28 190.78C8.98 190.78 8.05 190.41 7.49 189.67C6.93 188.91 6.65 187.79 6.65 186.31C6.65 184.81 7.28 180.58 8.54 173.62L6.95 170.41C9.19 168.97 11.19 168.25 12.95 168.25C14.71 168.25 16.04 168.56 16.94 169.18C17.84 169.78 18.47 170.67 18.83 171.85C19.19 173.03 19.45 174.28 19.61 175.6C19.79 176.9 20.09 178.47 20.51 180.31C20.95 182.15 21.56 183.81 22.34 185.29ZM42.4435 167.26C42.4435 168.02 42.0435 168.68 41.2435 169.24C40.4435 169.78 39.5335 170.05 38.5135 170.05C37.4935 170.05 36.6835 169.85 36.0835 169.45C35.5035 169.05 35.2135 168.51 35.2135 167.83C35.2135 166.91 35.6435 166.19 36.5035 165.67C37.3635 165.15 38.2735 164.89 39.2335 164.89C40.1935 164.89 40.9635 165.09 41.5435 165.49C42.1435 165.89 42.4435 166.48 42.4435 167.26ZM36.5935 190.75C35.3535 190.75 34.4535 190.44 33.8935 189.82C33.3335 189.2 33.0535 188.26 33.0535 187C33.0535 185.72 33.6935 182.31 34.9735 176.77L33.2935 174.25C35.7935 172.75 37.7635 172 39.2035 172C40.0235 172 40.6035 172.18 40.9435 172.54C41.2835 172.88 41.4535 173.44 41.4535 174.22C41.4535 174.52 41.0835 176.28 40.3435 179.5C39.6035 182.72 39.2335 185.02 39.2335 186.4C39.2335 187.78 39.5435 188.74 40.1635 189.28C39.0435 190.26 37.8535 190.75 36.5935 190.75ZM44.0844 182.86C44.0844 179.66 45.1844 177.05 47.3844 175.03C49.5844 173.01 52.3544 172 55.6944 172C57.4144 172 58.7744 172.33 59.7744 172.99C60.7744 173.63 61.2744 174.44 61.2744 175.42C61.2744 176.4 60.9344 177.15 60.2544 177.67C59.5944 178.19 58.8644 178.45 58.0644 178.45C57.2844 178.45 56.5644 178.24 55.9044 177.82C55.2644 177.4 54.7644 176.79 54.4044 175.99C53.1444 176.51 52.1444 177.43 51.4044 178.75C50.6844 180.07 50.3244 181.39 50.3244 182.71C50.3244 184.03 50.5844 185.1 51.1044 185.92C51.6244 186.74 52.3044 187.15 53.1444 187.15C53.9844 187.15 54.6644 186.87 55.1844 186.31C55.7244 185.75 55.9944 184.92 55.9944 183.82C58.9144 183.82 60.3744 184.51 60.3744 185.89C60.3744 187.07 59.6344 188.18 58.1544 189.22C56.6744 190.24 54.7244 190.75 52.3044 190.75C49.8844 190.75 47.9044 190.03 46.3644 188.59C44.8444 187.13 44.0844 185.22 44.0844 182.86ZM78.0052 174.28C79.1252 174.28 80.0852 174.73 80.8852 175.63C81.7052 176.53 82.1152 177.84 82.1152 179.56C82.1152 181.26 81.8152 182.84 81.2152 184.3C80.6152 185.74 79.8252 186.92 78.8452 187.84C77.8652 188.76 76.7552 189.48 75.5152 190C74.2752 190.5 73.0052 190.75 71.7052 190.75C69.0852 190.75 67.0152 190.03 65.4952 188.59C63.9752 187.15 63.2152 185.24 63.2152 182.86C63.2152 179.64 64.2452 177.03 66.3052 175.03C68.3852 173.01 71.0252 172 74.2252 172C74.9452 172 75.6652 172.08 76.3852 172.24C76.6052 172.9 76.7252 173.65 76.7452 174.49C77.1652 174.35 77.5852 174.28 78.0052 174.28ZM74.3152 178.45C74.3152 177.89 74.4452 177.26 74.7052 176.56C74.9852 175.86 75.4252 175.3 76.0252 174.88C73.3852 175.44 71.5652 176.51 70.5652 178.09C69.7052 179.45 69.2752 180.85 69.2752 182.29C69.2752 183.73 69.5652 184.89 70.1452 185.77C70.7452 186.63 71.5052 187.06 72.4252 187.06C74.4652 187.06 75.9052 185.73 76.7452 183.07C75.1252 182.07 74.3152 180.53 74.3152 178.45ZM87.7805 171.34L86.1005 168.94C88.6005 167.48 90.5705 166.75 92.0105 166.75C92.8305 166.75 93.4105 166.92 93.7505 167.26C94.0905 167.58 94.2605 168.2 94.2605 169.12C94.2605 170.02 93.8105 172.58 92.9105 176.8C92.0305 181.02 91.5905 183.98 91.5905 185.68C91.5905 187.38 91.9005 188.58 92.5205 189.28C91.1205 190.26 89.8505 190.75 88.7105 190.75C87.5705 190.75 86.7305 190.38 86.1905 189.64C85.6705 188.88 85.4105 187.84 85.4105 186.52C85.4105 185.2 85.7805 182.5 86.5205 178.42C87.2605 174.34 87.6805 171.98 87.7805 171.34ZM107.664 186.31L107.364 186.16C106.824 187.6 106.044 188.73 105.024 189.55C104.024 190.35 102.904 190.75 101.664 190.75C99.9635 190.75 98.6035 190.11 97.5835 188.83C96.5635 187.55 96.0535 185.84 96.0535 183.7C96.0535 180.38 97.1635 177.6 99.3835 175.36C101.624 173.12 104.404 172 107.724 172C108.584 172 109.374 172.08 110.094 172.24C110.214 172.8 110.284 173.29 110.304 173.71C111.304 173.07 112.334 172.75 113.394 172.75C114.854 172.75 115.584 173.54 115.584 175.12C115.584 175.68 115.264 177.37 114.624 180.19C114.004 183.01 113.694 185.1 113.694 186.46C113.694 187.82 114.004 188.76 114.624 189.28C113.504 190.26 112.334 190.75 111.114 190.75C109.914 190.75 109.034 190.39 108.474 189.67C107.934 188.95 107.664 187.83 107.664 186.31ZM101.694 182.23C101.694 183.21 101.894 183.97 102.294 184.51C102.714 185.03 103.304 185.29 104.064 185.29C104.824 185.29 105.574 185.01 106.314 184.45C107.054 183.89 107.674 183.12 108.174 182.14C108.354 180.12 108.744 177.73 109.344 174.97C107.324 174.97 105.544 175.7 104.004 177.16C102.464 178.62 101.694 180.31 101.694 182.23ZM128.163 175.99C127.423 176.21 126.833 176.53 126.393 176.95C125.953 177.35 125.563 177.93 125.223 178.69C128.603 179.19 130.983 179.91 132.363 180.85C133.743 181.79 134.433 183.13 134.433 184.87C134.433 185.97 134.123 186.93 133.503 187.75C132.883 188.55 132.103 189.16 131.163 189.58C129.323 190.36 127.513 190.75 125.733 190.75C120.673 190.75 118.143 189.66 118.143 187.48C118.143 186.38 118.633 185.28 119.613 184.18C120.113 184.88 120.863 185.48 121.863 185.98C122.883 186.48 123.873 186.73 124.833 186.73C126.493 186.73 127.493 186 127.833 184.54C124.793 184.18 122.593 183.5 121.233 182.5C119.873 181.5 119.193 180.09 119.193 178.27C119.193 176.83 119.663 175.62 120.603 174.64C121.563 173.66 122.743 172.98 124.143 172.6C125.563 172.2 127.153 172 128.913 172C130.693 172 132.153 172.34 133.293 173.02C134.453 173.68 135.033 174.49 135.033 175.45C135.033 176.41 134.693 177.15 134.013 177.67C133.353 178.19 132.623 178.45 131.823 178.45C131.043 178.45 130.323 178.24 129.663 177.82C129.023 177.4 128.523 176.79 128.163 175.99ZM153.561 185.29L154.281 184.81C152.981 182.31 152.331 179.57 152.331 176.59C152.331 174.27 152.901 172.3 154.041 170.68C155.201 169.06 156.831 168.25 158.931 168.25C160.031 168.25 160.961 168.44 161.721 168.82C161.521 169.94 161.161 171.89 160.641 174.67C159.521 180.65 158.961 184.08 158.961 184.96C158.961 186.86 159.281 188.28 159.921 189.22C159.041 189.8 158.231 190.2 157.491 190.42C156.751 190.64 155.791 190.75 154.611 190.75C153.451 190.75 152.391 190.5 151.431 190C150.491 189.5 149.711 188.84 149.091 188.02C148.491 187.18 147.981 186.15 147.561 184.93C146.821 182.79 146.371 180.07 146.211 176.77H145.731C144.811 180.93 144.351 183.84 144.351 185.5C144.351 187.16 144.651 188.47 145.251 189.43C144.051 190.33 142.801 190.78 141.501 190.78C140.201 190.78 139.271 190.41 138.711 189.67C138.151 188.91 137.871 187.79 137.871 186.31C137.871 184.81 138.501 180.58 139.761 173.62L138.171 170.41C140.411 168.97 142.411 168.25 144.171 168.25C145.931 168.25 147.261 168.56 148.161 169.18C149.061 169.78 149.691 170.67 150.051 171.85C150.411 173.03 150.671 174.28 150.831 175.6C151.011 176.9 151.311 178.47 151.731 180.31C152.171 182.15 152.781 183.81 153.561 185.29ZM175.134 186.31L174.834 186.16C174.294 187.6 173.514 188.73 172.494 189.55C171.494 190.35 170.374 190.75 169.134 190.75C167.434 190.75 166.074 190.11 165.054 188.83C164.034 187.55 163.524 185.84 163.524 183.7C163.524 180.38 164.634 177.6 166.854 175.36C169.094 173.12 171.874 172 175.194 172C176.054 172 176.844 172.08 177.564 172.24C177.684 172.8 177.754 173.29 177.774 173.71C178.774 173.07 179.804 172.75 180.864 172.75C182.324 172.75 183.054 173.54 183.054 175.12C183.054 175.68 182.734 177.37 182.094 180.19C181.474 183.01 181.164 185.1 181.164 186.46C181.164 187.82 181.474 188.76 182.094 189.28C180.974 190.26 179.804 190.75 178.584 190.75C177.384 190.75 176.504 190.39 175.944 189.67C175.404 188.95 175.134 187.83 175.134 186.31ZM169.164 182.23C169.164 183.21 169.364 183.97 169.764 184.51C170.184 185.03 170.774 185.29 171.534 185.29C172.294 185.29 173.044 185.01 173.784 184.45C174.524 183.89 175.144 183.12 175.644 182.14C175.824 180.12 176.214 177.73 176.814 174.97C174.794 174.97 173.014 175.7 171.474 177.16C169.934 178.62 169.164 180.31 169.164 182.23ZM191.584 181.6C191.584 182.62 191.864 183.45 192.424 184.09C193.004 184.71 193.714 185.02 194.554 185.02C195.694 185.02 196.714 184.48 197.614 183.4C197.954 181.62 198.394 178.81 198.934 174.97C196.694 174.97 194.904 175.62 193.564 176.92C192.244 178.22 191.584 179.78 191.584 181.6ZM199.534 192.97C198.594 194.23 197.414 195.22 195.994 195.94C194.574 196.68 193.074 197.05 191.494 197.05C189.934 197.05 188.674 196.75 187.714 196.15C186.774 195.57 186.304 194.78 186.304 193.78C186.304 192.78 186.714 191.73 187.534 190.63C188.454 191.99 189.834 192.67 191.674 192.67C192.874 192.67 193.984 192.15 195.004 191.11C196.044 190.09 196.734 188.59 197.074 186.61L196.774 186.46C195.354 188.54 193.534 189.58 191.314 189.58C189.634 189.58 188.314 188.93 187.354 187.63C186.394 186.33 185.914 184.6 185.914 182.44C185.914 180.36 186.484 178.46 187.624 176.74C188.924 174.76 190.734 173.39 193.054 172.63C194.334 172.21 195.554 172 196.714 172C197.874 172 198.854 172.08 199.654 172.24C199.774 172.78 199.844 173.27 199.864 173.71C200.804 173.07 201.754 172.75 202.714 172.75C204.094 172.75 204.784 173.46 204.784 174.88C204.784 176.3 204.694 177.76 204.514 179.26C204.334 180.74 204.054 182.33 203.674 184.03C203.294 185.73 202.744 187.34 202.024 188.86C201.324 190.36 200.494 191.73 199.534 192.97ZM219.08 186.31L218.78 186.16C218.24 187.6 217.46 188.73 216.44 189.55C215.44 190.35 214.32 190.75 213.08 190.75C211.38 190.75 210.02 190.11 209 188.83C207.98 187.55 207.47 185.84 207.47 183.7C207.47 180.38 208.58 177.6 210.8 175.36C213.04 173.12 215.82 172 219.14 172C220 172 220.79 172.08 221.51 172.24C221.63 172.8 221.7 173.29 221.72 173.71C222.72 173.07 223.75 172.75 224.81 172.75C226.27 172.75 227 173.54 227 175.12C227 175.68 226.68 177.37 226.04 180.19C225.42 183.01 225.11 185.1 225.11 186.46C225.11 187.82 225.42 188.76 226.04 189.28C224.92 190.26 223.75 190.75 222.53 190.75C221.33 190.75 220.45 190.39 219.89 189.67C219.35 188.95 219.08 187.83 219.08 186.31ZM213.11 182.23C213.11 183.21 213.31 183.97 213.71 184.51C214.13 185.03 214.72 185.29 215.48 185.29C216.24 185.29 216.99 185.01 217.73 184.45C218.47 183.89 219.09 183.12 219.59 182.14C219.77 180.12 220.16 177.73 220.76 174.97C218.74 174.97 216.96 175.7 215.42 177.16C213.88 178.62 213.11 180.31 213.11 182.23ZM233.459 190.75C232.279 190.75 231.409 190.44 230.849 189.82C230.289 189.2 230.009 188.38 230.009 187.36C230.009 186.34 230.209 184.68 230.609 182.38C231.029 180.08 231.459 177.98 231.899 176.08L230.339 173.68C232.319 172.56 234.149 172 235.829 172C237.509 172 238.349 172.76 238.349 174.28C238.349 175.28 238.119 176.3 237.659 177.34L237.959 177.49C240.099 173.83 242.819 172 246.119 172C248.539 172 249.749 173.21 249.749 175.63C249.749 176.67 249.449 178.43 248.849 180.91C248.269 183.39 247.979 185.26 247.979 186.52C247.979 187.78 248.189 188.7 248.609 189.28C247.549 190.26 246.429 190.75 245.249 190.75C242.949 190.75 241.799 189.51 241.799 187.03C241.799 186.11 242.099 184.55 242.699 182.35C243.299 180.15 243.599 178.72 243.599 178.06C243.599 177.16 243.259 176.71 242.579 176.71C242.019 176.71 241.379 176.96 240.659 177.46C239.939 177.94 239.239 178.6 238.559 179.44C237.899 180.26 237.339 181.31 236.879 182.59C236.419 183.85 236.189 185.14 236.189 186.46C236.189 187.76 236.399 188.7 236.819 189.28C235.759 190.26 234.639 190.75 233.459 190.75ZM267.234 174.28C268.354 174.28 269.314 174.73 270.114 175.63C270.934 176.53 271.344 177.84 271.344 179.56C271.344 181.26 271.044 182.84 270.444 184.3C269.844 185.74 269.054 186.92 268.074 187.84C267.094 188.76 265.984 189.48 264.744 190C263.504 190.5 262.234 190.75 260.934 190.75C258.314 190.75 256.244 190.03 254.724 188.59C253.204 187.15 252.444 185.24 252.444 182.86C252.444 179.64 253.474 177.03 255.534 175.03C257.614 173.01 260.254 172 263.454 172C264.174 172 264.894 172.08 265.614 172.24C265.834 172.9 265.954 173.65 265.974 174.49C266.394 174.35 266.814 174.28 267.234 174.28ZM263.544 178.45C263.544 177.89 263.674 177.26 263.934 176.56C264.214 175.86 264.654 175.3 265.254 174.88C262.614 175.44 260.794 176.51 259.794 178.09C258.934 179.45 258.504 180.85 258.504 182.29C258.504 183.73 258.794 184.89 259.374 185.77C259.974 186.63 260.734 187.06 261.654 187.06C263.694 187.06 265.134 185.73 265.974 183.07C264.354 182.07 263.544 180.53 263.544 178.45Z" fill="url(#paint0_linear_305_5)"/>
<path d="M73.7266 203.695V211H72.4666V203.695H73.7266ZM73.3966 200.59C73.6566 200.59 73.7866 200.72 73.7866 200.98V201.835C73.7866 202.095 73.6566 202.225 73.3966 202.225H72.7966C72.5366 202.225 72.4066 202.095 72.4066 201.835V200.98C72.4066 200.72 72.5366 200.59 72.7966 200.59H73.3966ZM85.0223 203.515C85.6523 203.515 86.1323 203.685 86.4623 204.025C86.8023 204.365 86.9723 204.865 86.9723 205.525V211H85.7123V205.885C85.7023 205.435 85.6123 205.11 85.4423 204.91C85.2723 204.7 84.9823 204.595 84.5723 204.595C84.3123 204.595 84.0623 204.64 83.8223 204.73C83.5923 204.81 83.3373 204.94 83.0573 205.12C82.7773 205.3 82.4373 205.535 82.0373 205.825L81.9623 204.925C82.4923 204.455 83.0073 204.105 83.5073 203.875C84.0073 203.635 84.5123 203.515 85.0223 203.515ZM77.1773 203.695L77.2673 205.09L77.4023 205.315V211H76.1273V203.695H77.1773ZM80.2373 203.515C80.8573 203.515 81.3323 203.685 81.6623 204.025C81.9923 204.355 82.1623 204.855 82.1723 205.525V211H80.9423V205.885C80.9423 205.415 80.8473 205.085 80.6573 204.895C80.4673 204.695 80.1823 204.595 79.8023 204.595C79.5523 204.595 79.3073 204.635 79.0673 204.715C78.8373 204.795 78.5773 204.925 78.2873 205.105C78.0073 205.285 77.6623 205.525 77.2523 205.825L77.1623 204.925C77.6923 204.455 78.2073 204.105 78.7073 203.875C79.2073 203.635 79.7173 203.515 80.2373 203.515ZM93.4519 203.515C94.3419 203.515 94.9819 203.845 95.3719 204.505C95.7619 205.155 95.9569 206.115 95.9569 207.385C95.9569 208.325 95.8569 209.075 95.6569 209.635C95.4569 210.185 95.1519 210.58 94.7419 210.82C94.3419 211.06 93.8269 211.18 93.1969 211.18C92.7169 211.18 92.2419 211.115 91.7719 210.985C91.3119 210.855 90.8619 210.655 90.4219 210.385L90.4969 209.62C90.9669 209.75 91.3819 209.86 91.7419 209.95C92.1019 210.03 92.4819 210.07 92.8819 210.07C93.3119 210.07 93.6519 209.995 93.9019 209.845C94.1619 209.695 94.3519 209.425 94.4719 209.035C94.5919 208.645 94.6519 208.095 94.6519 207.385C94.6519 206.695 94.5969 206.15 94.4869 205.75C94.3769 205.35 94.2019 205.065 93.9619 204.895C93.7319 204.715 93.4219 204.625 93.0319 204.625C92.6319 204.625 92.2369 204.72 91.8469 204.91C91.4569 205.1 91.0019 205.39 90.4819 205.78L90.3619 204.925C90.6319 204.635 90.9369 204.385 91.2769 204.175C91.6169 203.965 91.9719 203.805 92.3419 203.695C92.7219 203.575 93.0919 203.515 93.4519 203.515ZM90.3169 203.695L90.4519 205.21L90.5419 205.405V210.085L90.4819 210.265C90.5119 210.545 90.5269 210.815 90.5269 211.075C90.5369 211.335 90.5419 211.61 90.5419 211.9V214.015H89.2669V203.695H90.3169ZM98.9581 203.695L99.1231 205.09L99.2431 205.315V211H97.9681V203.695H98.9581ZM102.543 203.515L102.393 204.715H101.973C101.543 204.715 101.113 204.805 100.683 204.985C100.253 205.155 99.7281 205.4 99.1081 205.72L99.0031 204.925C99.5431 204.485 100.083 204.14 100.623 203.89C101.173 203.64 101.703 203.515 102.213 203.515H102.543ZM106.888 203.515C107.728 203.515 108.398 203.64 108.898 203.89C109.408 204.14 109.773 204.55 109.993 205.12C110.213 205.68 110.323 206.425 110.323 207.355C110.323 208.285 110.213 209.035 109.993 209.605C109.773 210.165 109.408 210.57 108.898 210.82C108.398 211.07 107.728 211.195 106.888 211.195C106.058 211.195 105.388 211.07 104.878 210.82C104.378 210.57 104.013 210.165 103.783 209.605C103.563 209.035 103.453 208.285 103.453 207.355C103.453 206.425 103.563 205.68 103.783 205.12C104.013 204.55 104.378 204.14 104.878 203.89C105.388 203.64 106.058 203.515 106.888 203.515ZM106.888 204.595C106.358 204.595 105.938 204.68 105.628 204.85C105.328 205.01 105.113 205.29 104.983 205.69C104.853 206.09 104.788 206.645 104.788 207.355C104.788 208.065 104.853 208.62 104.983 209.02C105.113 209.42 105.328 209.705 105.628 209.875C105.938 210.035 106.358 210.115 106.888 210.115C107.418 210.115 107.838 210.035 108.148 209.875C108.458 209.705 108.678 209.42 108.808 209.02C108.938 208.62 109.003 208.065 109.003 207.355C109.003 206.645 108.938 206.09 108.808 205.69C108.678 205.29 108.458 205.01 108.148 204.85C107.838 204.68 107.418 204.595 106.888 204.595ZM118.731 203.695L116.061 210.685C116.021 210.785 115.961 210.865 115.881 210.925C115.811 210.975 115.721 211 115.611 211H114.456C114.356 211 114.266 210.975 114.186 210.925C114.106 210.865 114.046 210.785 114.006 210.685L111.336 203.695H112.701L114.501 208.81C114.581 209.02 114.656 209.235 114.726 209.455C114.796 209.675 114.866 209.885 114.936 210.085H115.131C115.211 209.875 115.286 209.665 115.356 209.455C115.436 209.235 115.511 209.02 115.581 208.81L117.381 203.695H118.731ZM121.51 203.695V211H120.25V203.695H121.51ZM121.18 200.59C121.44 200.59 121.57 200.72 121.57 200.98V201.835C121.57 202.095 121.44 202.225 121.18 202.225H120.58C120.32 202.225 120.19 202.095 120.19 201.835V200.98C120.19 200.72 120.32 200.59 120.58 200.59H121.18ZM128.35 203.515C129.67 203.515 130.33 204.185 130.33 205.525V211H129.055V205.885C129.055 205.395 128.975 205.06 128.815 204.88C128.655 204.69 128.385 204.595 128.005 204.595C127.555 204.595 127.105 204.705 126.655 204.925C126.205 205.145 125.67 205.445 125.05 205.825L124.99 204.91C125.56 204.47 126.125 204.13 126.685 203.89C127.245 203.64 127.8 203.515 128.35 203.515ZM124.99 203.695L125.095 205.09L125.185 205.315V211H123.91V203.695H124.99ZM135.521 203.515C136.301 203.515 136.916 203.595 137.366 203.755C137.826 203.915 138.151 204.165 138.341 204.505C138.541 204.845 138.641 205.29 138.641 205.84C138.641 206.37 138.541 206.81 138.341 207.16C138.151 207.5 137.826 207.755 137.366 207.925C136.906 208.085 136.286 208.165 135.506 208.165C134.726 208.165 134.106 208.085 133.646 207.925C133.196 207.755 132.871 207.5 132.671 207.16C132.481 206.82 132.386 206.385 132.386 205.855C132.386 205.305 132.481 204.86 132.671 204.52C132.871 204.17 133.201 203.915 133.661 203.755C134.121 203.595 134.741 203.515 135.521 203.515ZM135.506 204.49C134.776 204.49 134.266 204.595 133.976 204.805C133.696 205.005 133.556 205.35 133.556 205.84C133.556 206.32 133.696 206.665 133.976 206.875C134.266 207.085 134.776 207.19 135.506 207.19C136.246 207.19 136.756 207.085 137.036 206.875C137.316 206.665 137.456 206.32 137.456 205.84C137.456 205.35 137.316 205.005 137.036 204.805C136.756 204.595 136.246 204.49 135.506 204.49ZM139.496 203.695L139.421 204.4L137.561 204.55L137.036 203.695H139.496ZM133.451 207.685L134.186 207.79C134.016 207.94 133.901 208.125 133.841 208.345C133.781 208.555 133.796 208.75 133.886 208.93C133.986 209.11 134.191 209.225 134.501 209.275L137.231 209.71C137.921 209.81 138.401 210.025 138.671 210.355C138.941 210.685 139.076 211.155 139.076 211.765C139.076 212.335 138.966 212.785 138.746 213.115C138.536 213.445 138.176 213.68 137.666 213.82C137.156 213.96 136.466 214.03 135.596 214.03C134.936 214.03 134.381 213.99 133.931 213.91C133.481 213.84 133.116 213.715 132.836 213.535C132.566 213.365 132.371 213.14 132.251 212.86C132.131 212.58 132.071 212.23 132.071 211.81C132.071 211.49 132.116 211.22 132.206 211C132.306 210.79 132.456 210.6 132.656 210.43C132.866 210.26 133.136 210.095 133.466 209.935L134.366 209.44L134.951 209.65L134.216 210.205C134.016 210.355 133.846 210.505 133.706 210.655C133.576 210.795 133.476 210.945 133.406 211.105C133.346 211.275 133.316 211.475 133.316 211.705C133.316 212.045 133.381 212.305 133.511 212.485C133.641 212.665 133.871 212.785 134.201 212.845C134.531 212.915 134.991 212.95 135.581 212.95C136.171 212.95 136.626 212.915 136.946 212.845C137.276 212.775 137.506 212.65 137.636 212.47C137.766 212.29 137.831 212.035 137.831 211.705C137.831 211.455 137.796 211.265 137.726 211.135C137.666 211.005 137.546 210.905 137.366 210.835C137.186 210.765 136.921 210.705 136.571 210.655L133.946 210.295C133.636 210.255 133.386 210.155 133.196 209.995C133.016 209.835 132.891 209.645 132.821 209.425C132.751 209.205 132.731 208.985 132.761 208.765C132.791 208.535 132.866 208.325 132.986 208.135C133.106 207.935 133.261 207.785 133.451 207.685ZM153.225 203.515C153.855 203.515 154.335 203.685 154.665 204.025C155.005 204.365 155.175 204.865 155.175 205.525V211H153.915V205.885C153.905 205.435 153.815 205.11 153.645 204.91C153.475 204.7 153.185 204.595 152.775 204.595C152.515 204.595 152.265 204.64 152.025 204.73C151.795 204.81 151.54 204.94 151.26 205.12C150.98 205.3 150.64 205.535 150.24 205.825L150.165 204.925C150.695 204.455 151.21 204.105 151.71 203.875C152.21 203.635 152.715 203.515 153.225 203.515ZM145.38 203.695L145.47 205.09L145.605 205.315V211H144.33V203.695H145.38ZM148.44 203.515C149.06 203.515 149.535 203.685 149.865 204.025C150.195 204.355 150.365 204.855 150.375 205.525V211H149.145V205.885C149.145 205.415 149.05 205.085 148.86 204.895C148.67 204.695 148.385 204.595 148.005 204.595C147.755 204.595 147.51 204.635 147.27 204.715C147.04 204.795 146.78 204.925 146.49 205.105C146.21 205.285 145.865 205.525 145.455 205.825L145.365 204.925C145.895 204.455 146.41 204.105 146.91 203.875C147.41 203.635 147.92 203.515 148.44 203.515ZM163.95 203.695L161.025 211.405C160.905 211.725 160.755 212.04 160.575 212.35C160.395 212.66 160.175 212.94 159.915 213.19C159.665 213.45 159.365 213.66 159.015 213.82C158.675 213.98 158.28 214.07 157.83 214.09L157.71 213.25C158.3 213.06 158.755 212.805 159.075 212.485C159.395 212.165 159.65 211.775 159.84 211.315L160.2 210.445C160.28 210.245 160.36 210.025 160.44 209.785C160.52 209.545 160.595 209.33 160.665 209.14L162.57 203.695H163.95ZM157.935 203.695L159.87 209.14C159.92 209.29 159.97 209.44 160.02 209.59C160.07 209.73 160.11 209.875 160.14 210.025H160.485L160.065 211H159.675C159.575 211 159.48 210.97 159.39 210.91C159.31 210.85 159.255 210.77 159.225 210.67L156.57 203.695H157.935ZM167.84 203.515C168.16 203.515 168.5 203.525 168.86 203.545C169.22 203.565 169.575 203.59 169.925 203.62C170.285 203.65 170.615 203.69 170.915 203.74L170.81 204.67C170.35 204.65 169.885 204.635 169.415 204.625C168.955 204.605 168.495 204.595 168.035 204.595C167.585 204.585 167.23 204.595 166.97 204.625C166.71 204.655 166.52 204.735 166.4 204.865C166.29 204.995 166.235 205.215 166.235 205.525C166.235 205.905 166.325 206.155 166.505 206.275C166.685 206.395 166.95 206.495 167.3 206.575L169.43 207.055C170.01 207.195 170.435 207.41 170.705 207.7C170.985 207.99 171.125 208.445 171.125 209.065C171.125 209.665 171.01 210.115 170.78 210.415C170.56 210.715 170.22 210.915 169.76 211.015C169.3 211.115 168.715 211.165 168.005 211.165C167.745 211.165 167.355 211.155 166.835 211.135C166.325 211.115 165.76 211.055 165.14 210.955L165.23 210.025C165.47 210.035 165.725 210.05 165.995 210.07C166.265 210.08 166.545 210.085 166.835 210.085C167.135 210.085 167.44 210.085 167.75 210.085C168.3 210.085 168.73 210.06 169.04 210.01C169.35 209.96 169.57 209.865 169.7 209.725C169.83 209.575 169.895 209.355 169.895 209.065C169.895 208.705 169.79 208.465 169.58 208.345C169.37 208.225 169.09 208.125 168.74 208.045L166.64 207.565C166.24 207.465 165.92 207.335 165.68 207.175C165.44 207.005 165.265 206.79 165.155 206.53C165.045 206.26 164.99 205.925 164.99 205.525C164.99 204.955 165.09 204.525 165.29 204.235C165.49 203.945 165.8 203.75 166.22 203.65C166.64 203.55 167.18 203.505 167.84 203.515ZM176.027 203.515C177.127 203.515 177.922 203.715 178.412 204.115C178.912 204.515 179.162 205.11 179.162 205.9C179.172 206.55 179.037 207.06 178.757 207.43C178.477 207.79 178.032 207.97 177.422 207.97H173.162V206.98H177.092C177.422 206.98 177.637 206.87 177.737 206.65C177.837 206.42 177.887 206.17 177.887 205.9C177.877 205.43 177.737 205.095 177.467 204.895C177.197 204.695 176.737 204.595 176.087 204.595C175.557 204.595 175.137 204.675 174.827 204.835C174.527 204.985 174.312 205.255 174.182 205.645C174.062 206.025 174.002 206.56 174.002 207.25C174.002 208.03 174.077 208.625 174.227 209.035C174.387 209.445 174.637 209.725 174.977 209.875C175.317 210.025 175.767 210.1 176.327 210.1C176.717 210.1 177.142 210.085 177.602 210.055C178.072 210.015 178.492 209.97 178.862 209.92L178.997 210.775C178.767 210.865 178.482 210.94 178.142 211C177.812 211.06 177.467 211.105 177.107 211.135C176.757 211.165 176.442 211.18 176.162 211.18C175.322 211.18 174.647 211.055 174.137 210.805C173.627 210.545 173.252 210.135 173.012 209.575C172.782 209.005 172.667 208.255 172.667 207.325C172.667 206.365 172.782 205.61 173.012 205.06C173.252 204.5 173.617 204.105 174.107 203.875C174.607 203.635 175.247 203.515 176.027 203.515ZM182.373 200.5L182.358 208.99C182.358 209.31 182.443 209.555 182.613 209.725C182.793 209.885 183.043 209.965 183.363 209.965H184.068L184.218 210.94C184.128 210.98 183.998 211.015 183.828 211.045C183.668 211.075 183.498 211.095 183.318 211.105C183.148 211.125 183.003 211.135 182.883 211.135C182.343 211.135 181.908 210.975 181.578 210.655C181.258 210.335 181.098 209.875 181.098 209.275V200.5H182.373ZM188.178 200.245C188.338 200.245 188.543 200.25 188.793 200.26C189.043 200.26 189.298 200.27 189.558 200.29C189.818 200.3 190.043 200.32 190.233 200.35L190.128 201.295H188.628C188.148 201.295 187.808 201.39 187.608 201.58C187.418 201.77 187.323 202.085 187.323 202.525V211H186.048V202.39C186.048 201.93 186.118 201.545 186.258 201.235C186.398 200.915 186.623 200.67 186.933 200.5C187.243 200.33 187.658 200.245 188.178 200.245ZM189.663 203.695V204.7H184.728V203.77L186.123 203.695H189.663Z" fill="url(#paint1_linear_305_5)" style="mix-blend-mode:hard-light"/>
<g clip-path="url(#clip1_305_5)">
<path d="M206.72 93.0154C206.72 83.0158 194.315 73.5393 175.296 67.6626C179.685 48.0943 177.734 32.5257 169.139 27.5413C167.158 26.3722 164.841 25.8183 162.311 25.8183V32.6796C163.713 32.6796 164.841 32.9565 165.786 33.4795C169.931 35.8794 171.729 45.0175 170.327 56.7708C169.992 59.663 169.443 62.709 168.773 65.8166C162.799 64.3397 156.276 63.2013 149.418 62.4629C145.303 56.7708 141.036 51.6018 136.739 47.0789C146.675 37.7563 156.002 32.6488 162.342 32.6488V25.7876C153.96 25.7876 142.987 31.8181 131.892 42.2791C120.798 31.8796 109.825 25.9106 101.443 25.9106V32.7719C107.752 32.7719 117.11 37.8486 127.046 47.1097C122.779 51.6326 118.512 56.7708 114.458 62.4629C107.569 63.2013 101.047 64.3397 95.0727 65.8473C94.3717 62.7705 93.8535 59.7861 93.4878 56.9247C92.0552 45.1713 93.823 36.0333 97.9378 33.6026C98.8522 33.0488 100.041 32.8026 101.443 32.8026V25.9414C98.8827 25.9414 96.5662 26.4952 94.5546 27.6644C85.9897 32.6488 84.0695 48.1866 88.4891 67.6934C69.5306 73.6008 57.1863 83.0466 57.1863 93.0154C57.1863 103.015 69.5916 112.491 88.611 118.368C84.2219 137.936 86.1726 153.505 94.7679 158.489C96.7491 159.659 99.0656 160.212 101.626 160.212C110.008 160.212 120.981 154.182 132.075 143.721C143.17 154.12 154.143 160.089 162.525 160.089C165.085 160.089 167.401 159.536 169.413 158.366C177.978 153.382 179.898 137.844 175.479 118.337C194.376 112.461 206.72 102.984 206.72 93.0154ZM167.036 72.4932C165.908 76.4623 164.506 80.5544 162.921 84.6465C161.671 82.1851 160.361 79.7236 158.928 77.2622C157.526 74.8008 156.032 72.4009 154.539 70.0625C158.867 70.7087 163.043 71.5086 167.036 72.4932ZM153.076 105.261C150.698 109.415 148.26 113.353 145.73 117.014C141.189 117.414 136.586 117.63 131.953 117.63C127.351 117.63 122.748 117.414 118.237 117.045C115.708 113.384 113.239 109.476 110.861 105.353C108.545 101.323 106.442 97.2306 104.521 93.1077C106.411 88.9848 108.545 84.8619 110.831 80.8313C113.208 76.6776 115.647 72.7393 118.176 69.078C122.718 68.678 127.32 68.4626 131.953 68.4626C136.556 68.4626 141.158 68.678 145.669 69.0472C148.199 72.7086 150.668 76.6161 153.045 80.739C155.362 84.7696 157.465 88.8617 159.385 92.9846C157.465 97.1075 155.362 101.23 153.076 105.261ZM162.921 101.261C164.567 105.384 165.969 109.507 167.127 113.507C163.134 114.491 158.928 115.322 154.569 115.968C156.063 113.599 157.556 111.168 158.958 108.676C160.361 106.215 161.671 103.723 162.921 101.261ZM132.014 134.09C129.18 131.137 126.345 127.845 123.541 124.245C126.284 124.368 129.088 124.46 131.923 124.46C134.788 124.46 137.623 124.399 140.396 124.245C137.653 127.845 134.818 131.137 132.014 134.09ZM109.337 115.968C105.009 115.322 100.833 114.522 96.8405 113.538C97.9683 109.568 99.3704 105.476 100.955 101.384C102.205 103.846 103.516 106.307 104.948 108.769C106.381 111.23 107.844 113.63 109.337 115.968ZM131.862 51.9403C134.697 54.894 137.531 58.1861 140.335 61.786C137.592 61.6629 134.788 61.5706 131.953 61.5706C129.088 61.5706 126.254 61.6321 123.48 61.786C126.223 58.1861 129.058 54.894 131.862 51.9403ZM109.307 70.0625C107.813 72.4317 106.32 74.8623 104.918 77.3545C103.516 79.816 102.205 82.2774 100.955 84.7388C99.3094 80.6159 97.9073 76.493 96.7491 72.4932C100.742 71.5394 104.948 70.7087 109.307 70.0625ZM81.7225 108.584C70.9327 103.938 63.9528 97.8459 63.9528 93.0154C63.9528 88.1848 70.9327 82.062 81.7225 77.4468C84.3438 76.3084 87.2089 75.2931 90.1655 74.3393C91.9028 80.3698 94.1888 86.6464 97.0234 93.0769C94.2193 99.4766 91.9638 105.722 90.2569 111.722C87.2394 110.768 84.3743 109.722 81.7225 108.584ZM98.1207 152.551C93.9754 150.151 92.1771 141.013 93.5792 129.26C93.9145 126.368 94.4631 123.322 95.1337 120.214C101.108 121.691 107.63 122.829 114.488 123.568C118.603 129.26 122.87 134.429 127.168 138.952C117.232 148.274 107.905 153.382 101.565 153.382C100.193 153.351 99.0351 153.074 98.1207 152.551ZM170.419 129.106C171.851 140.859 170.084 149.997 165.969 152.428C165.054 152.982 163.866 153.228 162.464 153.228C156.154 153.228 146.797 148.151 136.861 138.89C141.128 134.367 145.395 129.229 149.449 123.537C156.337 122.799 162.86 121.66 168.834 120.153C169.535 123.26 170.084 126.245 170.419 129.106ZM182.154 108.584C179.532 109.722 176.667 110.738 173.711 111.691C171.973 105.661 169.687 99.3843 166.853 92.9538C169.657 86.5541 171.912 80.3082 173.619 74.3085C176.637 75.2623 179.502 76.3084 182.184 77.4468C192.974 82.0928 199.954 88.1848 199.954 93.0154C199.923 97.8459 192.943 103.969 182.154 108.584Z" fill="#61DAFB"/>
<path d="M131.923 107.076C139.616 107.076 145.852 100.781 145.852 93.0154C145.852 85.2498 139.616 78.9545 131.923 78.9545C124.23 78.9545 117.994 85.2498 117.994 93.0154C117.994 100.781 124.23 107.076 131.923 107.076Z" fill="#61DAFB"/>
</g>
</g>
<defs>
<linearGradient id="paint0_linear_305_5" x1="145" y1="160" x2="145" y2="193" gradientUnits="userSpaceOnUse">
<stop offset="0.265625" stop-color="#F20E0E"/>
<stop offset="1" stop-color="#130EF2" stop-opacity="0.76"/>
</linearGradient>
<linearGradient id="paint1_linear_305_5" x1="130.95" y1="196" x2="130.95" y2="214" gradientUnits="userSpaceOnUse">
<stop offset="0.9999" stop-color="#FFEAEA" stop-opacity="0.97"/>
<stop offset="1" stop-color="#30159D" stop-opacity="0"/>
</linearGradient>
<clipPath id="clip0_305_5">
<rect width="277" height="228" fill="white"/>
</clipPath>
<clipPath id="clip1_305_5">
<rect width="149.534" height="172" fill="white" transform="translate(57.1863 7)"/>
</clipPath>
</defs>
</svg>
